<svg width="900" height="600" viewBox="0 0 900 600" fill="none" xmlns="http://www.w3.org/2000/svg">
<rect width="900" height="600" fill="#E8EAED"/>
<path d="M482.653 221.316C487.982 215.052 498.858 215.052 504.187 221.316L697.405 448.429C703.849 456.006 697.555 466.666 686.635 466.666H300.204C289.286 466.666 282.992 456.006 289.437 448.429L482.653 221.316Z" fill="#A2AAB8"/>
<path d="M209.54 466.663H485.409H506.777L355.162 305.116C351.356 300.993 343.592 300.993 339.788 305.116L201.853 454.655C197.252 459.644 201.746 466.663 209.54 466.663Z" fill="#B9BFCA"/>
<path d="M306.963 185.861C306.963 214.871 283.445 238.389 254.434 238.389C225.423 238.389 201.904 214.871 201.904 185.861C201.904 156.85 225.423 133.333 254.434 133.333C283.445 133.333 306.963 156.85 306.963 185.861Z" fill="#A2AAB8"/>
</svg>